# Blender v2.78 (sub 0) OBJ File: 'house2.blend'
# www.blender.org
mtllib house2.mtl
o Cube
v 3.193335 0.073045 -3.028607
v 3.193335 0.073045 3.173018
v -3.008291 0.073045 3.173017
v -3.008289 0.073045 -3.028609
v 3.193337 5.194441 -3.028606
v 3.193333 5.194441 3.173020
v -3.008291 5.194441 3.173017
v -3.008290 5.194441 -3.028608
v 3.535231 5.342578 -3.370499
v 3.535227 5.342578 3.514913
v -3.350183 5.342578 -3.370501
v -3.350185 5.342578 3.514910
v 0.454295 6.843904 -0.289566
v 0.454294 6.843904 0.433978
v -0.269250 6.843904 -0.289567
v -0.269250 6.843904 0.433978
v -3.481534 0.071794 0.300944
v -3.481534 6.776963 0.300944
v -3.481534 0.071794 -0.514396
v -3.481534 6.776963 -0.514396
v -3.002159 0.071794 0.300944
v -3.002159 6.776963 0.300944
v -3.002159 0.071794 -0.514396
v -3.002159 6.776963 -0.514396
v -3.005245 2.160833 3.994918
v -3.005245 2.242694 3.994918
v -3.005245 2.160833 3.174707
v -3.005245 2.814535 3.174707
v 3.198742 2.160833 3.994918
v 3.198742 2.242694 3.994918
v 3.198742 2.160833 3.174707
v 3.198742 2.814535 3.174707
v -0.508441 2.160833 3.174707
v -0.508442 2.814535 3.174707
v -0.508442 2.160833 3.994918
v -0.508441 2.242694 3.994918
v -3.005245 0.103593 3.174707
v -3.005245 0.103593 3.994918
v -0.508441 0.103593 3.174707
v -0.508442 0.103593 3.994918
v 2.997432 2.814535 3.174707
v 2.997432 2.160833 3.994918
v 2.997432 2.160833 3.174707
v 2.997432 2.242694 3.994918
v 3.198742 2.160833 3.584813
v 3.098087 2.160833 3.994918
v 3.098087 2.160833 3.174707
v 2.997432 2.160833 3.584813
v 3.098087 2.160833 3.584813
v 3.098087 0.064859 3.994918
v 3.198742 0.064859 3.994918
v 2.997432 0.064859 3.584813
v 2.997432 0.064859 3.994918
v 3.198742 0.064859 3.584813
v 3.098087 0.064859 3.584813
vt 0.4494 0.0078
vt 0.7107 0.0078
vt 0.7107 0.2668
vt 0.4494 0.2668
vt 0.4337 0.0280
vt 0.2490 0.2111
vt 0.2286 0.2111
vt 0.4337 0.0078
vt 0.8351 0.6891
vt 0.6193 0.6891
vt 0.6193 0.4300
vt 0.8351 0.4300
vt 0.6193 0.7046
vt 0.8351 0.7046
vt 0.8351 0.9637
vt 0.6193 0.9637
vt 0.9421 0.2668
vt 0.7264 0.2668
vt 0.7264 0.0078
vt 0.9421 0.0078
vt 0.0078 0.7332
vt 0.2236 0.7332
vt 0.2236 0.9922
vt 0.0078 0.9922
vt 0.6037 0.4300
vt 0.6037 0.7176
vt 0.4739 0.5890
vt 0.4739 0.5587
vt 0.4337 0.3943
vt 0.4337 0.4145
vt 0.0282 0.2111
vt 0.2130 0.3943
vt 0.2130 0.4145
vt 0.0078 0.2111
vt 0.2130 0.0280
vt 0.2130 0.0078
vt 0.4434 0.5890
vt 0.4434 0.5587
vt 0.3136 0.7176
vt 0.2979 0.4300
vt 0.2979 0.7176
vt 0.1681 0.5890
vt 0.1681 0.5587
vt 0.0078 0.4300
vt 0.1376 0.5587
vt 0.9922 0.0078
vt 0.9922 0.2878
vt 0.9578 0.2878
vt 0.9578 0.0078
vt 0.9437 0.8580
vt 0.9437 0.5780
vt 0.9639 0.5780
vt 0.9639 0.8580
vt 0.9078 0.5624
vt 0.9078 0.2824
vt 0.9421 0.2824
vt 0.9421 0.5624
vt 0.9078 0.8580
vt 0.9078 0.5780
vt 0.9280 0.5780
vt 0.9280 0.8580
vt 0.4360 0.7672
vt 0.4158 0.7672
vt 0.4158 0.7332
vt 0.4360 0.7332
vt 0.3799 0.7332
vt 0.4001 0.7332
vt 0.4001 0.7672
vt 0.3799 0.7672
vt 0.4516 0.7332
vt 0.4551 0.7332
vt 0.4792 0.7674
vt 0.4516 0.7674
vt 0.8576 0.8078
vt 0.8851 0.8078
vt 0.8851 0.8162
vt 0.8576 0.8162
vt 0.8576 0.8120
vt 0.5224 0.7674
vt 0.4949 0.7674
vt 0.5190 0.7332
vt 0.5224 0.7332
vt 0.5224 0.7503
vt 0.9795 0.7328
vt 0.9830 0.7328
vt 0.9830 0.8371
vt 0.9795 0.8371
vt 0.8221 0.3883
vt 0.8048 0.3883
vt 0.8048 0.3007
vt 0.8221 0.3007
vt 0.8921 0.4372
vt 0.8921 0.5415
vt 0.8576 0.5415
vt 0.8576 0.4372
vt 0.8921 0.2908
vt 0.8576 0.2908
vt 0.5361 0.2824
vt 0.5361 0.3866
vt 0.4494 0.3866
vt 0.4494 0.2824
vt 0.9795 0.5864
vt 0.9830 0.5864
vt 0.8576 0.5570
vt 0.8851 0.5570
vt 0.8851 0.6613
vt 0.8576 0.6613
vt 0.6541 0.3866
vt 0.6541 0.2824
vt 0.6887 0.2824
vt 0.6887 0.3866
vt 0.7044 0.3007
vt 0.7389 0.3007
vt 0.7389 0.3866
vt 0.7044 0.3866
vt 0.5518 0.3866
vt 0.5518 0.2824
vt 0.6384 0.2824
vt 0.6384 0.3866
vt 0.7546 0.3007
vt 0.7891 0.3007
vt 0.7891 0.3866
vt 0.7546 0.3866
vt 0.9795 0.5780
vt 0.9830 0.5780
vt 0.9795 0.5822
vt 0.8921 0.2824
vt 0.8576 0.2824
vt 0.2393 0.8880
vt 0.2393 0.7416
vt 0.2566 0.7416
vt 0.2738 0.7416
vt 0.2738 0.8880
vt 0.5622 0.7332
vt 0.5665 0.7332
vt 0.5665 0.8207
vt 0.5622 0.8207
vt 0.2393 0.7374
vt 0.2566 0.7374
vt 0.2393 0.7332
vt 0.2566 0.7332
vt 0.3600 0.7503
vt 0.3557 0.7503
vt 0.3557 0.7332
vt 0.3600 0.7332
vt 0.3642 0.7503
vt 0.3642 0.7332
vt 0.6037 0.8207
vt 0.5864 0.8207
vt 0.5864 0.7332
vt 0.6037 0.7332
vt 0.5707 0.7332
vt 0.5707 0.8207
vt 0.5381 0.7332
vt 0.5423 0.7332
vt 0.5423 0.8207
vt 0.5381 0.8207
vt 0.5466 0.7332
vt 0.5466 0.8207
vn 0.0000 -1.0000 0.0000
vn -0.0000 -0.9176 0.3976
vn 1.0000 0.0000 0.0000
vn -0.0000 -0.0000 1.0000
vn -1.0000 -0.0000 -0.0000
vn 0.0000 0.0000 -1.0000
vn -0.0000 0.8989 0.4381
vn 0.3976 -0.9176 0.0000
vn -0.3976 -0.9176 -0.0000
vn 0.0000 -0.9176 -0.3976
vn 0.0000 1.0000 0.0000
vn 0.4381 0.8989 0.0000
vn -0.4381 0.8989 0.0000
vn 0.0000 0.8989 -0.4381
vn 0.0000 0.8203 0.5719
usemtl Material
s off
f 1/1/1 2/2/1 3/3/1 4/4/1
f 7/5/2 6/6/2 10/7/2 12/8/2
f 1/9/3 5/10/3 6/11/3 2/12/3
f 2/13/4 6/14/4 7/15/4 3/16/4
f 3/17/5 7/18/5 8/19/5 4/20/5
f 5/21/6 1/22/6 4/23/6 8/24/6
f 12/25/7 10/26/7 14/27/7 16/28/7
f 6/6/8 5/29/8 9/30/8 10/7/8
f 8/31/9 7/32/9 12/33/9 11/34/9
f 5/35/10 8/31/10 11/34/10 9/36/10
f 13/37/11 15/38/11 16/28/11 14/27/11
f 10/26/12 9/39/12 13/37/12 14/27/12
f 11/40/13 12/41/13 16/42/13 15/43/13
f 9/44/14 11/40/14 15/43/14 13/45/14
f 17/46/5 18/47/5 20/48/5 19/49/5
f 19/50/6 20/51/6 24/52/6 23/53/6
f 23/54/3 24/55/3 22/56/3 21/57/3
f 21/58/4 22/59/4 18/60/4 17/61/4
f 19/62/1 23/63/1 21/64/1 17/65/1
f 24/66/11 20/67/11 18/68/11 22/69/11
f 25/70/5 26/71/5 28/72/5 27/73/5
f 43/74/6 41/75/6 32/76/6 31/77/6 47/78/6
f 31/79/3 32/80/3 30/81/3 29/82/3 45/83/3
f 35/84/4 36/85/4 26/86/4 25/87/4
f 45/88/3 29/89/3 51/90/3 54/91/3
f 34/92/15 28/93/15 26/94/15 36/95/15
f 41/96/15 34/92/15 36/95/15 44/97/15
f 35/98/4 25/99/4 38/100/4 40/101/4
f 42/102/4 44/103/4 36/85/4 35/84/4
f 27/104/6 28/105/6 34/106/6 33/107/6
f 37/108/1 39/109/1 40/110/1 38/111/1
f 33/112/3 35/113/3 40/114/3 39/115/3
f 27/116/6 33/117/6 39/118/6 37/119/6
f 25/120/5 27/121/5 37/122/5 38/123/5
f 29/124/4 30/125/4 44/103/4 42/102/4 46/126/4
f 32/127/15 41/96/15 44/97/15 30/128/15
f 33/129/1 43/130/1 48/131/1 42/132/1 35/133/1
f 33/107/6 34/106/6 41/75/6 43/74/6
f 48/134/6 49/135/6 55/136/6 52/137/6
f 43/130/1 47/138/1 49/139/1 48/131/1
f 47/138/1 31/140/1 45/141/1 49/139/1
f 55/142/1 54/143/1 51/144/1 50/145/1
f 52/146/1 55/142/1 50/145/1 53/147/1
f 42/148/5 48/149/5 52/150/5 53/151/5
f 49/135/6 45/152/6 54/153/6 55/136/6
f 29/154/4 46/155/4 50/156/4 51/157/4
f 46/155/4 42/158/4 53/159/4 50/156/4
