# Blender v2.78 (sub 0) OBJ File: ''
# www.blender.org
mtllib Toolbox.mtl
o Cube
v -0.326935 -0.003935 1.000000
v -0.326935 -0.003935 -1.000000
v -0.326935 0.561760 1.000000
v -0.326935 0.561760 -1.000000
v -0.163300 -0.003935 -1.000000
v -0.163300 -0.003935 1.000000
v -0.163300 0.722532 -1.000000
v -0.163301 0.722532 1.000000
v -0.047785 0.720855 0.209835
v -0.047785 0.865827 0.162892
v -0.047785 0.720855 -0.211833
v -0.047785 0.865827 -0.171401
v -0.024920 0.720558 -0.225164
v -0.024920 0.720558 0.223373
v -0.024920 0.870179 0.173439
v -0.024920 0.870179 -0.182156
v 0.000649 0.720855 -0.187111
v 0.001422 0.720855 0.173702
v 0.001422 0.836267 0.126759
v 0.000649 0.836267 -0.146679
v 0.000000 -0.003935 -1.000000
v 0.000000 -0.003935 1.000000
v 0.326935 -0.003935 1.000000
v 0.326935 -0.003935 -1.000000
v 0.000000 0.722532 -0.999999
v 0.000000 0.722532 1.000001
v 0.326935 0.561760 1.000000
v 0.326935 0.561760 -1.000000
v 0.163300 -0.003935 -1.000000
v 0.163300 -0.003935 1.000000
v 0.163300 0.722532 -1.000000
v 0.163301 0.722532 1.000000
v 0.047785 0.720855 0.209835
v 0.047785 0.865827 0.162892
v 0.047785 0.720855 -0.211833
v 0.047785 0.865827 -0.171401
v 0.000000 0.720238 0.237902
v 0.000000 0.874848 0.184758
v 0.000000 0.720238 -0.239471
v 0.000000 0.874848 -0.193697
v 0.024920 0.720558 -0.225164
v 0.024920 0.720558 0.223373
v 0.024920 0.870179 0.173439
v 0.024920 0.870179 -0.182156
v -0.000649 0.720855 -0.187111
v -0.001422 0.720855 0.173702
v -0.001422 0.836267 0.126759
v -0.000649 0.836267 -0.146679
vt 0.7871 0.0000
vt 0.7871 0.9263
vt 0.7158 0.9263
vt 0.7158 0.0000
vt 0.6378 0.0000
vt 0.7158 0.0000
vt 0.7158 0.9263
vt 0.6378 0.9263
vt 0.9292 0.3361
vt 0.9292 0.0012
vt 1.0000 0.0765
vt 1.0000 0.3373
vt 0.5664 0.9263
vt 0.3185 0.9263
vt 0.3185 0.0000
vt 0.5664 0.0000
vt 0.9280 0.3396
vt 0.9280 0.6734
vt 0.8584 0.6757
vt 0.8584 0.4158
vt 0.9975 0.3373
vt 0.9975 0.6710
vt 0.8584 0.3349
vt 0.8584 0.0000
vt 0.5664 0.0000
vt 0.5664 0.9263
vt 0.8584 0.0000
vt 0.8584 0.9263
vt 0.0457 0.9263
vt 0.0457 0.9915
vt 0.0230 0.9911
vt 0.0224 0.9395
vt 0.8791 0.9419
vt 0.8794 0.8729
vt 0.8903 0.8720
vt 0.8902 0.9433
vt 0.0108 0.9276
vt 0.0109 0.9988
vt 0.0002 0.9977
vt 0.0000 0.9287
vt 0.8584 0.6885
vt 0.8684 0.6823
vt 0.8684 0.8901
vt 0.8584 0.8838
vt 0.9115 0.6811
vt 0.9216 0.6860
vt 0.9216 0.8409
vt 0.9115 0.8458
vt 0.8791 0.6757
vt 0.8791 0.8968
vt 0.0224 0.9263
vt 0.0224 1.0000
vt 0.9006 0.6757
vt 0.9006 0.8510
vt 0.9021 0.8710
vt 0.9021 0.9448
vt 0.9280 0.8710
vt 0.9280 0.9352
vt 0.9021 0.9225
vt 0.9031 0.8718
vt 0.9445 0.6757
vt 0.9445 0.8305
vt 0.9220 0.8191
vt 0.9216 0.6925
vt 0.9006 0.6757
vt 0.9006 0.8710
vt 0.8791 0.8543
vt 0.8794 0.6872
vt 0.7871 0.0000
vt 0.7158 0.0000
vt 0.7158 0.9263
vt 0.7871 0.9263
vt 0.6378 0.0000
vt 0.6378 0.9263
vt 0.7158 0.9263
vt 0.7158 0.0000
vt 0.3185 0.9263
vt 0.3184 0.0000
vt 0.0000 0.0000
vt 0.0000 0.9263
vt 0.9292 0.3361
vt 1.0000 0.3373
vt 1.0000 0.0765
vt 0.9292 0.0012
vt 0.5664 0.9263
vt 0.5664 0.0000
vt 0.3185 0.0000
vt 0.3185 0.9263
vt 0.9280 0.3396
vt 0.8584 0.4158
vt 0.8584 0.6757
vt 0.9280 0.6734
vt 0.0457 0.9263
vt 0.0224 0.9395
vt 0.0230 0.9911
vt 0.0457 0.9915
vt 0.8791 0.9419
vt 0.8902 0.9433
vt 0.8903 0.8720
vt 0.8794 0.8729
vt 0.0108 0.9276
vt 0.0000 0.9287
vt 0.0002 0.9977
vt 0.0109 0.9988
vt 0.8584 0.6885
vt 0.8584 0.8838
vt 0.8684 0.8901
vt 0.8684 0.6823
vt 0.9115 0.6811
vt 0.9115 0.8458
vt 0.9216 0.8409
vt 0.9216 0.6860
vt 0.9280 0.8710
vt 0.9031 0.8718
vt 0.9021 0.9225
vt 0.9280 0.9352
vt 0.9445 0.6757
vt 0.9216 0.6925
vt 0.9220 0.8191
vt 0.9445 0.8305
vt 0.9006 0.6757
vt 0.8794 0.6872
vt 0.8791 0.8543
vt 0.9006 0.8710
vn 0.0000 -1.0000 0.0000
vn -0.7008 0.7133 -0.0000
vn -0.0000 -0.0000 1.0000
vn -1.0000 -0.0000 -0.0000
vn 0.0000 0.0000 -1.0000
vn 0.0000 1.0000 0.0000
vn -0.5004 -0.2568 0.8268
vn -0.4689 0.2407 -0.8498
vn -0.4669 0.2762 0.8400
vn -0.0130 -0.9999 0.0000
vn -0.1869 0.9824 0.0000
vn -0.0128 -0.9999 0.0000
vn -0.4608 0.2848 0.8406
vn -0.1842 0.9829 0.0000
vn -0.4630 0.2483 -0.8509
vn -0.6212 -0.2658 -0.7372
vn -0.5179 -0.8554 0.0007
vn 0.7008 0.7133 -0.0000
vn 1.0000 -0.0000 -0.0000
vn 0.5004 -0.2568 0.8268
vn 0.4689 0.2407 -0.8498
vn 0.4669 0.2762 0.8400
vn 0.0130 -0.9999 0.0000
vn 0.1869 0.9824 0.0000
vn 0.0128 -0.9999 0.0000
vn 0.4608 0.2848 0.8406
vn 0.1842 0.9829 0.0000
vn 0.4630 0.2483 -0.8509
vn 0.6212 -0.2658 -0.7372
vn 0.5179 -0.8554 0.0007
usemtl Material
s off
f 5/1/1 6/2/1 1/3/1 2/4/1
f 7/5/2 4/6/2 3/7/2 8/8/2
f 6/9/3 8/10/3 3/11/3 1/12/3
f 1/13/4 3/14/4 4/15/4 2/16/4
f 7/17/5 5/18/5 2/19/5 4/20/5
f 25/21/5 21/22/5 5/18/5 7/17/5
f 22/23/3 26/24/3 8/10/3 6/9/3
f 25/25/6 7/5/6 8/8/6 26/26/6
f 21/27/1 22/28/1 6/2/1 5/1/1
f 12/29/7 11/30/7 17/31/7 20/32/7
f 11/33/8 12/34/8 16/35/8 13/36/8
f 14/37/9 15/38/9 10/39/9 9/40/9
f 11/41/10 13/42/10 14/43/10 9/44/10
f 16/45/11 12/46/11 10/47/11 15/48/11
f 13/42/12 39/49/12 37/50/12 14/43/12
f 37/51/13 38/52/13 15/38/13 14/37/13
f 40/53/14 16/45/14 15/48/14 38/54/14
f 13/36/15 16/35/15 40/55/15 39/56/15
f 9/57/16 10/58/16 19/59/16 18/60/16
f 10/61/17 12/62/17 20/63/17 19/64/17
f 11/65/6 9/66/6 18/67/6 17/68/6
f 29/69/1 24/70/1 23/71/1 30/72/1
f 31/73/18 32/74/18 27/75/18 28/76/18
f 21/77/4 22/78/4 26/79/4 25/80/4
f 30/81/3 23/82/3 27/83/3 32/84/3
f 23/85/19 24/86/19 28/87/19 27/88/19
f 31/89/5 28/90/5 24/91/5 29/92/5
f 25/21/5 31/89/5 29/92/5 21/22/5
f 22/23/3 30/81/3 32/84/3 26/24/3
f 25/25/6 26/26/6 32/74/6 31/73/6
f 21/27/1 29/69/1 30/72/1 22/28/1
f 36/93/20 48/94/20 45/95/20 35/96/20
f 35/97/21 41/98/21 44/99/21 36/100/21
f 42/101/22 33/102/22 34/103/22 43/104/22
f 35/105/23 33/106/23 42/107/23 41/108/23
f 44/109/24 43/110/24 34/111/24 36/112/24
f 41/108/25 42/107/25 37/50/25 39/49/25
f 37/51/26 42/101/26 43/104/26 38/52/26
f 40/53/27 38/54/27 43/110/27 44/109/27
f 41/98/28 39/56/28 40/55/28 44/99/28
f 33/113/29 46/114/29 47/115/29 34/116/29
f 34/117/30 47/118/30 48/119/30 36/120/30
f 35/121/6 45/122/6 46/123/6 33/124/6
